<!-- <svg xmlns="http://www.w3.org/2000/svg" xmlns:xlink="http://www.w3.org/1999/xlink" version="1.1" id="Layer_1" x="0px" y="0px" viewBox="0 0 122.88 122.88" style="enable-background:new 0 0 122.88 122.88;" xml:space="preserve"> -->

	
<!-- </style>
<g>
	<path class="st0" d="M16.63,105.75c0.01-4.03,2.3-7.97,6.03-12.38L1.09,79.73c-1.36-0.59-1.33-1.42-0.54-2.4l4.57-3.9   c0.83-0.51,1.71-0.73,2.66-0.47l26.62,4.5l22.18-24.02L4.8,18.41c-1.31-0.77-1.42-1.64-0.07-2.65l7.47-5.96l67.5,18.97L99.64,7.45   c6.69-5.79,13.19-8.38,18.18-7.15c2.75,0.68,3.72,1.5,4.57,4.08c1.65,5.06-0.91,11.86-6.96,18.86L94.11,43.18l18.97,67.5   l-5.96,7.47c-1.01,1.34-1.88,1.23-2.65-0.07L69.43,66.31L45.41,88.48l4.5,26.62c0.26,0.94,0.05,1.82-0.47,2.66l-3.9,4.57   c-0.97,0.79-1.81,0.82-2.4-0.54l-13.64-21.57c-4.43,3.74-8.37,6.03-12.42,6.03C16.71,106.24,16.63,106.11,16.63,105.75   L16.63,105.75z"/>
</g>
</svg> -->


<svg xmlns="http://www.w3.org/2000/svg" xmlns:xlink="http://www.w3.org/1999/xlink" aria-hidden="true" role="img" class="iconify iconify--logos" width="31.88" height="32" preserveAspectRatio="xMidYMid meet" viewBox="0 0 256 257"><defs><linearGradient id="IconifyId1813088fe1fbc01fb466" x1="-.828%" x2="57.636%" y1="7.652%" y2="78.411%"><stop offset="0%" stop-color="#41D1FF"></stop><stop offset="100%" stop-color="#BD34FE"></stop></linearGradient><linearGradient id="IconifyId1813088fe1fbc01fb467" x1="43.376%" x2="50.316%" y1="2.242%" y2="89.03%"><stop offset="0%" stop-color="#FFEA83"></stop><stop offset="8.333%" stop-color="#FFDD35"></stop><stop offset="100%" stop-color="#FFA800"></stop></linearGradient></defs><path fill="url(#IconifyId1813088fe1fbc01fb466)" d="M255.153 37.938L134.897 252.976c-2.483 4.44-8.862 4.466-11.382.048L.875 37.958c-2.746-4.814 1.371-10.646 6.827-9.67l120.385 21.517a6.537 6.537 0 0 0 2.322-.004l117.867-21.483c5.438-.991 9.574 4.796 6.877 9.62Z"></path><path fill="url(#IconifyId1813088fe1fbc01fb467)" d="M185.432.063L96.44 17.501a3.268 3.268 0 0 0-2.634 3.014l-5.474 92.456a3.268 3.268 0 0 0 3.997 3.378l24.777-5.718c2.318-.535 4.413 1.507 3.936 3.838l-7.361 36.047c-.495 2.426 1.782 4.5 4.151 3.78l15.304-4.649c2.372-.72 4.652 1.36 4.15 3.788l-11.698 56.621c-.732 3.542 3.979 5.473 5.943 2.437l1.313-2.028l72.516-144.72c1.215-2.423-.88-5.186-3.54-4.672l-25.505 4.922c-2.396.462-4.435-1.77-3.759-4.114l16.646-57.705c.677-2.35-1.37-4.583-3.769-4.113Z"></path></svg>